<mxfile host="Electron" modified="2023-08-08T14:52:19.890Z" agent="Mozilla/5.0 (Windows NT 10.0; Win64; x64) AppleWebKit/537.36 (KHTML, like Gecko) draw.io/21.6.5 Chrome/114.0.5735.243 Electron/25.3.1 Safari/537.36" etag="G0oJAvaXptNo2OnFJblg" version="21.6.5" type="device">
  <diagram name="Page-1" id="9ZHE00pOwzTvuAb8NUSj">
    <mxGraphModel dx="880" dy="545" grid="1" gridSize="10" guides="1" tooltips="1" connect="1" arrows="1" fold="1" page="1" pageScale="1" pageWidth="1169" pageHeight="827" math="0" shadow="0">
      <root>
        <mxCell id="0" />
        <mxCell id="1" parent="0" />
        <mxCell id="bF2C1t9dCx4boC2oWDr1-1" value="Types" style="shape=folder;fontStyle=1;spacingTop=10;tabWidth=40;tabHeight=14;tabPosition=left;html=1;whiteSpace=wrap;" vertex="1" parent="1">
          <mxGeometry y="20" width="80" height="60" as="geometry" />
        </mxCell>
        <mxCell id="bF2C1t9dCx4boC2oWDr1-2" value="Types" style="shape=folder;fontStyle=1;spacingTop=10;tabWidth=40;tabHeight=14;tabPosition=left;html=1;whiteSpace=wrap;" vertex="1" parent="1">
          <mxGeometry x="560" y="10" width="80" height="60" as="geometry" />
        </mxCell>
        <mxCell id="bF2C1t9dCx4boC2oWDr1-5" style="edgeStyle=orthogonalEdgeStyle;rounded=0;orthogonalLoop=1;jettySize=auto;html=1;exitX=0.5;exitY=0;exitDx=0;exitDy=0;entryX=0.5;entryY=1;entryDx=0;entryDy=0;entryPerimeter=0;endArrow=circlePlus;endFill=0;endSize=4;" edge="1" parent="1" source="bF2C1t9dCx4boC2oWDr1-3" target="bF2C1t9dCx4boC2oWDr1-2">
          <mxGeometry relative="1" as="geometry" />
        </mxCell>
        <mxCell id="bF2C1t9dCx4boC2oWDr1-3" value="&lt;b&gt;Shape&lt;/b&gt;" style="whiteSpace=wrap;html=1;" vertex="1" parent="1">
          <mxGeometry x="500" y="130" width="80" height="40" as="geometry" />
        </mxCell>
        <mxCell id="bF2C1t9dCx4boC2oWDr1-6" style="edgeStyle=orthogonalEdgeStyle;rounded=0;orthogonalLoop=1;jettySize=auto;html=1;exitX=0.5;exitY=0;exitDx=0;exitDy=0;endArrow=circlePlus;endFill=0;endSize=4;" edge="1" parent="1" source="bF2C1t9dCx4boC2oWDr1-4" target="bF2C1t9dCx4boC2oWDr1-2">
          <mxGeometry relative="1" as="geometry" />
        </mxCell>
        <mxCell id="bF2C1t9dCx4boC2oWDr1-4" value="&lt;b&gt;Point&lt;/b&gt;" style="whiteSpace=wrap;html=1;" vertex="1" parent="1">
          <mxGeometry x="620" y="130" width="80" height="40" as="geometry" />
        </mxCell>
        <mxCell id="bF2C1t9dCx4boC2oWDr1-9" value="Types&lt;br&gt;{url=http://www.abc.com/models/Types}" style="shape=folder;fontStyle=1;tabWidth=240;tabHeight=30;tabPosition=left;html=1;boundedLbl=1;labelInHeader=1;container=1;collapsible=0;recursiveResize=0;whiteSpace=wrap;" vertex="1" parent="1">
          <mxGeometry x="160" width="280" height="100" as="geometry" />
        </mxCell>
        <mxCell id="bF2C1t9dCx4boC2oWDr1-10" value="&lt;b&gt;Integer&lt;/b&gt;" style="html=1;whiteSpace=wrap;" vertex="1" parent="bF2C1t9dCx4boC2oWDr1-9">
          <mxGeometry width="60" height="30" relative="1" as="geometry">
            <mxPoint x="20" y="40" as="offset" />
          </mxGeometry>
        </mxCell>
        <mxCell id="bF2C1t9dCx4boC2oWDr1-11" value="&lt;b&gt;Time&lt;/b&gt;" style="html=1;whiteSpace=wrap;" vertex="1" parent="bF2C1t9dCx4boC2oWDr1-9">
          <mxGeometry width="50" height="30" relative="1" as="geometry">
            <mxPoint x="200" y="60" as="offset" />
          </mxGeometry>
        </mxCell>
        <mxCell id="bF2C1t9dCx4boC2oWDr1-12" value="&lt;b&gt;Figure 12.5 Examples of a Package with Members&lt;/b&gt;" style="text;html=1;align=left;verticalAlign=middle;resizable=0;points=[];autosize=1;strokeColor=none;fillColor=none;" vertex="1" parent="1">
          <mxGeometry y="120" width="310" height="30" as="geometry" />
        </mxCell>
      </root>
    </mxGraphModel>
  </diagram>
</mxfile>
